<mxGraphModel dx="1218" dy="859" grid="1" gridSize="16" guides="1" tooltips="1" connect="1" arrows="1" fold="1" page="1" pageScale="1" pageWidth="1920" pageHeight="1080" math="0" shadow="0"><root><mxCell id="0"/><mxCell id="1" parent="0"/><mxCell id="aXCU5YFC7vpl7JOLCe4v-1" value="Font" style="rounded=0;whiteSpace=wrap;html=1;fillColor=#333333;fontColor=#F5F5F5;fontSize=20;fontStyle=1" parent="1" vertex="1"><mxGeometry x="64" y="320" width="384" height="64" as="geometry"/></mxCell><mxCell id="aXCU5YFC7vpl7JOLCe4v-2" value="Font" style="rounded=0;whiteSpace=wrap;html=1;fillColor=#F5F5F5;fontColor=#333333;fontSize=20;fontStyle=1" parent="1" vertex="1"><mxGeometry x="448" y="320" width="192" height="64" as="geometry"/></mxCell><mxCell id="aXCU5YFC7vpl7JOLCe4v-3" value="Font" style="rounded=0;whiteSpace=wrap;html=1;fillColor=#FFD966;fontColor=#333333;fontSize=20;fontStyle=1" parent="1" vertex="1"><mxGeometry x="640" y="320" width="64" height="64" as="geometry"/></mxCell><mxCell id="aXCU5YFC7vpl7JOLCe4v-4" value="60 - 30 - 10 Rule" style="rounded=0;whiteSpace=wrap;html=1;fontSize=48;" parent="1" vertex="1"><mxGeometry x="64" y="64" width="1792" height="64" as="geometry"/></mxCell><mxCell id="aXCU5YFC7vpl7JOLCe4v-5" value="Colors:&lt;br&gt;&lt;blockquote style=&quot;margin: 0 0 0 40px; border: none; padding: 0px;&quot;&gt;60% background, base elements&lt;br&gt;30% foreground&lt;br&gt;10% user invitation&lt;/blockquote&gt;" style="text;html=1;strokeColor=none;fillColor=none;align=left;verticalAlign=top;whiteSpace=wrap;rounded=0;fontSize=12;" parent="1" vertex="1"><mxGeometry x="64" y="192" width="256" height="64" as="geometry"/></mxCell><mxCell id="aXCU5YFC7vpl7JOLCe4v-6" value="" style="rounded=0;whiteSpace=wrap;html=1;fillColor=#F5F5F5;" parent="1" vertex="1"><mxGeometry x="64" y="448" width="384" height="64" as="geometry"/></mxCell><mxCell id="aXCU5YFC7vpl7JOLCe4v-7" value="" style="rounded=0;whiteSpace=wrap;html=1;fillColor=#333333;" parent="1" vertex="1"><mxGeometry x="448" y="448" width="192" height="64" as="geometry"/></mxCell><mxCell id="aXCU5YFC7vpl7JOLCe4v-8" value="" style="rounded=0;whiteSpace=wrap;html=1;fillColor=#FFD966;" parent="1" vertex="1"><mxGeometry x="640" y="448" width="64" height="64" as="geometry"/></mxCell><mxCell id="1mFyTeshp3CsXZv5yaIS-1" value="Font" style="rounded=0;whiteSpace=wrap;html=1;fillColor=#930827;fontColor=#F5F5F5;fontSize=20;fontStyle=1" parent="1" vertex="1"><mxGeometry x="448" y="576" width="192" height="64" as="geometry"/></mxCell><mxCell id="53qr0TsFah_Y5hik-7Na-1" value="Font" style="rounded=0;whiteSpace=wrap;html=1;fillColor=#330066;fontColor=#F5F5F5;fontSize=20;fontStyle=1" parent="1" vertex="1"><mxGeometry x="448" y="704" width="192" height="64" as="geometry"/></mxCell><mxCell id="_k5mSVPJKcwy-BDLfMR_-1" value="" style="rounded=0;whiteSpace=wrap;html=1;fillColor=#333333;" parent="1" vertex="1"><mxGeometry x="64" y="576" width="384" height="64" as="geometry"/></mxCell><mxCell id="_k5mSVPJKcwy-BDLfMR_-2" value="" style="rounded=0;whiteSpace=wrap;html=1;fillColor=#F5F5F5;" parent="1" vertex="1"><mxGeometry x="640" y="576" width="64" height="64" as="geometry"/></mxCell><mxCell id="_k5mSVPJKcwy-BDLfMR_-3" value="Font" style="rounded=0;whiteSpace=wrap;html=1;fillColor=#930827;fontColor=#F5F5F5;fontSize=20;fontStyle=1" parent="1" vertex="1"><mxGeometry x="832" y="576" width="192" height="64" as="geometry"/></mxCell><mxCell id="_k5mSVPJKcwy-BDLfMR_-4" value="" style="rounded=0;whiteSpace=wrap;html=1;fillColor=#333333;" parent="1" vertex="1"><mxGeometry x="768" y="576" width="64" height="64" as="geometry"/></mxCell><mxCell id="_k5mSVPJKcwy-BDLfMR_-5" value="" style="rounded=0;whiteSpace=wrap;html=1;fillColor=#F5F5F5;" parent="1" vertex="1"><mxGeometry x="1024" y="576" width="384" height="64" as="geometry"/></mxCell><mxCell id="_k5mSVPJKcwy-BDLfMR_-6" value="" style="rounded=0;whiteSpace=wrap;html=1;fillColor=#333333;" parent="1" vertex="1"><mxGeometry x="64" y="704" width="384" height="64" as="geometry"/></mxCell><mxCell id="_k5mSVPJKcwy-BDLfMR_-7" value="" style="rounded=0;whiteSpace=wrap;html=1;fillColor=#F5F5F5;" parent="1" vertex="1"><mxGeometry x="640" y="704" width="64" height="64" as="geometry"/></mxCell><mxCell id="_k5mSVPJKcwy-BDLfMR_-8" value="" style="rounded=0;whiteSpace=wrap;html=1;fillColor=#333333;" parent="1" vertex="1"><mxGeometry x="768" y="704" width="64" height="64" as="geometry"/></mxCell><mxCell id="_k5mSVPJKcwy-BDLfMR_-9" value="" style="rounded=0;whiteSpace=wrap;html=1;fillColor=#F5F5F5;" parent="1" vertex="1"><mxGeometry x="1024" y="704" width="384" height="64" as="geometry"/></mxCell><mxCell id="_k5mSVPJKcwy-BDLfMR_-10" value="Font" style="rounded=0;whiteSpace=wrap;html=1;fillColor=#330066;fontColor=#F5F5F5;fontSize=20;fontStyle=1" parent="1" vertex="1"><mxGeometry x="832" y="704" width="192" height="64" as="geometry"/></mxCell></root></mxGraphModel>